HIERARCHY
ROOT Hips
{
	OFFSET 0.000000 71.427986 0.000000
	CHANNELS 6 Xposition Yposition Zposition Xrotation Yrotation Zrotation
	JOINT Pelvis
	{
		OFFSET 0.000000 0.000000 0.000000
		CHANNELS 3 Xrotation Yrotation Zrotation
		JOINT LeftUpLeg
		{
			OFFSET 6.797100 -2.508499 -1.318700
			CHANNELS 3 Xrotation Yrotation Zrotation
			JOINT LeftLeg
			{
				OFFSET 0.069008 -29.241863 0.690200
				CHANNELS 3 Xrotation Yrotation Zrotation
				JOINT LeftFoot
				{
					OFFSET -0.069008 -29.568123 -0.266800
					CHANNELS 3 Xrotation Yrotation Zrotation
					JOINT LeftToeBase
					{
						OFFSET 3.145500 -8.631000 16.059900
						CHANNELS 3 Xrotation Yrotation Zrotation
						End Site
						{
							OFFSET 0.000000 18.501587 0.000000
						}
					}
				}
			}
			JOINT Left_ShortSleeve
			{
				OFFSET 0.265923 -10.480953 1.153800
				CHANNELS 3 Xrotation Yrotation Zrotation
				End Site
				{
					OFFSET 1.725763 19.823879 0.000000
				}
			}
		}
		JOINT RightUpLeg
		{
			OFFSET -6.797100 -2.508499 -1.318700
			CHANNELS 3 Xrotation Yrotation Zrotation
			JOINT RightLeg
			{
				OFFSET -0.082453 -29.241932 0.688000
				CHANNELS 3 Xrotation Yrotation Zrotation
				JOINT RightFoot
				{
					OFFSET 0.082453 -29.568058 -0.264600
					CHANNELS 3 Xrotation Yrotation Zrotation
					JOINT RightToeBase
					{
						OFFSET -3.115300 -8.682800 16.113400
						CHANNELS 3 Xrotation Yrotation Zrotation
						End Site
						{
							OFFSET 0.000000 18.567114 0.000000
						}
					}
				}
			}
			JOINT Right_ShortSleeve
			{
				OFFSET -0.265923 -10.480953 1.153800
				CHANNELS 3 Xrotation Yrotation Zrotation
				End Site
				{
					OFFSET -1.725766 19.823910 0.000000
				}
			}
		}
	}
	JOINT Spine
	{
		OFFSET 0.000000 13.368103 0.470500
		CHANNELS 3 Xrotation Yrotation Zrotation
		JOINT Spine1
		{
			OFFSET 0.147000 13.837402 0.538800
			CHANNELS 3 Xrotation Yrotation Zrotation
			JOINT Spine2
			{
				OFFSET 0.168000 16.242897 -1.435500
				CHANNELS 3 Xrotation Yrotation Zrotation
				JOINT Neck
				{
					OFFSET 0.217200 18.631500 -1.679100
					CHANNELS 3 Xrotation Yrotation Zrotation
					JOINT Head
					{
						OFFSET 0.000000 6.599396 1.385900
						CHANNELS 3 Xrotation Yrotation Zrotation
						JOINT Hat
						{
							OFFSET -0.532200 27.220596 -10.096100
							CHANNELS 3 Xrotation Yrotation Zrotation
							End Site
							{
								OFFSET 0.000000 22.029861 0.000000
							}
						}
						JOINT HairD
						{
							OFFSET -10.777400 17.437393 -1.325900
							CHANNELS 3 Xrotation Yrotation Zrotation
							JOINT HairD1
							{
								OFFSET -3.290299 -11.051193 1.062200
								CHANNELS 3 Xrotation Yrotation Zrotation
								End Site
								{
									OFFSET 0.000000 11.579437 0.000000
								}
							}
						}
						JOINT HairB
						{
							OFFSET -10.777400 17.437393 1.467900
							CHANNELS 3 Xrotation Yrotation Zrotation
							JOINT HairB1
							{
								OFFSET -1.561200 -12.956299 3.590200
								CHANNELS 3 Xrotation Yrotation Zrotation
								End Site
								{
									OFFSET 0.000000 13.534866 0.000000
								}
							}
						}
						JOINT HairA
						{
							OFFSET 9.713100 17.437393 1.467900
							CHANNELS 3 Xrotation Yrotation Zrotation
							JOINT HairA1
							{
								OFFSET 1.561200 -12.956299 3.590200
								CHANNELS 3 Xrotation Yrotation Zrotation
								End Site
								{
									OFFSET 0.000000 13.534866 0.000000
								}
							}
						}
						JOINT HairC
						{
							OFFSET 9.713100 17.437393 -1.325900
							CHANNELS 3 Xrotation Yrotation Zrotation
							JOINT HairC1
							{
								OFFSET 3.290300 -11.051193 1.062200
								CHANNELS 3 Xrotation Yrotation Zrotation
								End Site
								{
									OFFSET 0.000000 11.579437 0.000000
								}
							}
						}
					}
				}
				JOINT LeftShoulder
				{
					OFFSET 5.101800 15.108002 -2.763700
					CHANNELS 3 Xrotation Yrotation Zrotation
					JOINT LeftArm
					{
						OFFSET 9.825497 2.506317 -1.597400
						CHANNELS 3 Xrotation Yrotation Zrotation
						JOINT LeftForeArm
						{
							OFFSET 21.966244 0.000000 0.000000
							CHANNELS 3 Xrotation Yrotation Zrotation
							JOINT LeftHand
							{
								OFFSET 33.879036 0.000000 0.000000
								CHANNELS 3 Xrotation Yrotation Zrotation
								JOINT LeftHandThumb1
								{
									OFFSET 6.715286 -2.359680 3.363841
									CHANNELS 3 Xrotation Yrotation Zrotation
									JOINT LeftHandThumb2
									{
										OFFSET 2.507072 -1.447464 1.447461
										CHANNELS 3 Xrotation Yrotation Zrotation
										JOINT LeftHandThumb3
										{
											OFFSET 2.898338 -1.673355 1.673357
											CHANNELS 3 Xrotation Yrotation Zrotation
											End Site
											{
												OFFSET -0.295959 3.727692 -0.131651
											}
										}
									}
								}
								JOINT LeftHandIndex1
								{
									OFFSET 14.190811 -0.254547 3.840278
									CHANNELS 3 Xrotation Yrotation Zrotation
									JOINT LeftHandIndex2
									{
										OFFSET 3.551727 0.000000 -0.000000
										CHANNELS 3 Xrotation Yrotation Zrotation
										JOINT LeftHandIndex3
										{
											OFFSET 2.894196 0.000000 0.000000
											CHANNELS 3 Xrotation Yrotation Zrotation
											End Site
											{
												OFFSET -1.000603 2.690872 0.366626
											}
										}
									}
								}
								JOINT LeftHandMiddle1
								{
									OFFSET 13.776489 0.000000 0.000000
									CHANNELS 3 Xrotation Yrotation Zrotation
									JOINT LeftHandMiddle2
									{
										OFFSET 3.438232 0.000000 0.000000
										CHANNELS 3 Xrotation Yrotation Zrotation
										JOINT LeftHandMiddle3
										{
											OFFSET 3.691551 0.000000 0.000000
											CHANNELS 3 Xrotation Yrotation Zrotation
											End Site
											{
												OFFSET -1.082298 3.499527 0.457670
											}
										}
									}
								}
								JOINT LeftHandRing1
								{
									OFFSET 13.966164 -0.268127 -3.067488
									CHANNELS 3 Xrotation Yrotation Zrotation
									JOINT LeftHandRing2
									{
										OFFSET 3.162567 0.000000 0.000000
										CHANNELS 3 Xrotation Yrotation Zrotation
										JOINT LeftHandRing3
										{
											OFFSET 3.324348 0.000000 0.000000
											CHANNELS 3 Xrotation Yrotation Zrotation
											End Site
											{
												OFFSET -0.861900 3.184998 0.405154
											}
										}
									}
								}
								JOINT LeftHandPinky1
								{
									OFFSET 13.131393 -0.168503 -5.746925
									CHANNELS 3 Xrotation Yrotation Zrotation
									JOINT LeftHandPinky2
									{
										OFFSET 2.849182 0.000000 0.000000
										CHANNELS 3 Xrotation Yrotation Zrotation
										JOINT LeftHandPinky3
										{
											OFFSET 2.805038 0.000000 0.000000
											CHANNELS 3 Xrotation Yrotation Zrotation
											End Site
											{
												OFFSET -0.882500 2.642609 0.325652
											}
										}
									}
								}
							}
							JOINT Left_Sleeve
							{
								OFFSET 6.592125 -0.646545 0.805568
								CHANNELS 3 Xrotation Yrotation Zrotation
								End Site
								{
									OFFSET -0.000179 20.275787 -0.000000
								}
							}
						}
					}
				}
				JOINT RightShoulder
				{
					OFFSET -5.731700 15.108002 -2.763700
					CHANNELS 3 Xrotation Yrotation Zrotation
					JOINT RightArm
					{
						OFFSET -9.825497 2.506317 -1.597400
						CHANNELS 3 Xrotation Yrotation Zrotation
						JOINT RightForeArm
						{
							OFFSET -21.966242 0.000000 0.000000
							CHANNELS 3 Xrotation Yrotation Zrotation
							JOINT RightHand
							{
								OFFSET -33.879032 0.000000 0.000000
								CHANNELS 3 Xrotation Yrotation Zrotation
								JOINT RightHandThumb1
								{
									OFFSET -6.715286 -2.359680 3.363841
									CHANNELS 3 Xrotation Yrotation Zrotation
									JOINT RightHandThumb2
									{
										OFFSET -2.507072 -1.447464 1.447461
										CHANNELS 3 Xrotation Yrotation Zrotation
										JOINT RightHandThumb3
										{
											OFFSET -2.898338 -1.673355 1.673357
											CHANNELS 3 Xrotation Yrotation Zrotation
											End Site
											{
												OFFSET 0.295959 3.727692 -0.131651
											}
										}
									}
								}
								JOINT RightHandIndex1
								{
									OFFSET -14.190811 -0.254547 3.840278
									CHANNELS 3 Xrotation Yrotation Zrotation
									JOINT RightHandIndex2
									{
										OFFSET -3.551727 0.000000 -0.000000
										CHANNELS 3 Xrotation Yrotation Zrotation
										JOINT RightHandIndex3
										{
											OFFSET -2.894196 0.000000 0.000000
											CHANNELS 3 Xrotation Yrotation Zrotation
											End Site
											{
												OFFSET 1.000603 2.690872 0.366626
											}
										}
									}
								}
								JOINT RightHandMiddle1
								{
									OFFSET -13.776489 0.000000 0.000000
									CHANNELS 3 Xrotation Yrotation Zrotation
									JOINT RightHandMiddle2
									{
										OFFSET -3.438232 0.000000 0.000000
										CHANNELS 3 Xrotation Yrotation Zrotation
										JOINT RightHandMiddle3
										{
											OFFSET -3.691551 0.000000 0.000000
											CHANNELS 3 Xrotation Yrotation Zrotation
											End Site
											{
												OFFSET 1.082298 3.499527 0.457670
											}
										}
									}
								}
								JOINT RightHandRing1
								{
									OFFSET -13.966164 -0.268127 -3.067488
									CHANNELS 3 Xrotation Yrotation Zrotation
									JOINT RightHandRing2
									{
										OFFSET -3.162567 0.000000 0.000000
										CHANNELS 3 Xrotation Yrotation Zrotation
										JOINT RightHandRing3
										{
											OFFSET -3.324348 0.000000 0.000000
											CHANNELS 3 Xrotation Yrotation Zrotation
											End Site
											{
												OFFSET 0.861900 3.184998 0.405154
											}
										}
									}
								}
								JOINT RightHandPinky1
								{
									OFFSET -13.131393 -0.168503 -5.746925
									CHANNELS 3 Xrotation Yrotation Zrotation
									JOINT RightHandPinky2
									{
										OFFSET -2.849182 0.000000 0.000000
										CHANNELS 3 Xrotation Yrotation Zrotation
										JOINT RightHandPinky3
										{
											OFFSET -2.805038 0.000000 0.000000
											CHANNELS 3 Xrotation Yrotation Zrotation
											End Site
											{
												OFFSET 0.882500 2.642609 0.325652
											}
										}
									}
								}
							}
							JOINT Right_Sleeve
							{
								OFFSET -6.592125 -0.646545 0.805568
								CHANNELS 3 Xrotation Yrotation Zrotation
								End Site
								{
									OFFSET 0.000179 20.275787 -0.000000
								}
							}
						}
					}
				}
				JOINT Bind_Right_JacketString
				{
					OFFSET -3.534800 11.969597 7.200700
					CHANNELS 3 Xrotation Yrotation Zrotation
					JOINT Bind_Right_JacketString1
					{
						OFFSET -0.319900 -6.102600 2.794100
						CHANNELS 3 Xrotation Yrotation Zrotation
						End Site
						{
							OFFSET 0.000000 6.719452 0.000000
						}
					}
				}
				JOINT Bind_Left_JacketString
				{
					OFFSET 2.904800 11.969597 7.200700
					CHANNELS 3 Xrotation Yrotation Zrotation
					JOINT Bind_Left_JacketString1
					{
						OFFSET 0.364800 -5.904503 3.186800
						CHANNELS 3 Xrotation Yrotation Zrotation
						End Site
						{
							OFFSET 0.000000 6.719513 0.000000
						}
					}
				}
				JOINT HairE
				{
					OFFSET 5.915200 17.612701 -11.592200
					CHANNELS 3 Xrotation Yrotation Zrotation
					JOINT HairE1
					{
						OFFSET 0.289200 -7.171898 -1.284500
						CHANNELS 3 Xrotation Yrotation Zrotation
						End Site
						{
							OFFSET 0.000000 7.291756 0.000000
						}
					}
				}
				JOINT HairF
				{
					OFFSET -0.864800 17.612701 -11.592200
					CHANNELS 3 Xrotation Yrotation Zrotation
					JOINT HairF1
					{
						OFFSET 0.000000 -14.087097 -2.127501
						CHANNELS 3 Xrotation Yrotation Zrotation
						End Site
						{
							OFFSET 0.000000 14.246841 0.000000
						}
					}
				}
				JOINT HairG
				{
					OFFSET -8.087700 17.612701 -11.592200
					CHANNELS 3 Xrotation Yrotation Zrotation
					JOINT HairG1
					{
						OFFSET -0.293600 -6.081398 -0.910100
						CHANNELS 3 Xrotation Yrotation Zrotation
						End Site
						{
							OFFSET 0.000000 6.156120 0.000000
						}
					}
				}
			}
		}
	}
	JOINT Pouch
	{
		OFFSET 0.000000 4.394501 10.847300
		CHANNELS 3 Xrotation Yrotation Zrotation
		End Site
		{
			OFFSET 0.000000 21.880577 0.000000
		}
	}
	JOINT Bag
	{
		OFFSET -13.229000 4.813004 -0.593300
		CHANNELS 3 Xrotation Yrotation Zrotation
		End Site
		{
			OFFSET 0.000000 21.880577 0.000000
		}
	}
	JOINT OccupyGuyFacialAnim_Joint
	{
		OFFSET 1.000000 -70.206398 -1.655000
		CHANNELS 3 Xrotation Yrotation Zrotation
		End Site
		{
			OFFSET 0.000000 21.880577 0.000000
		}
	}
}
MOTION
Frames: 4
Frame Time: 0.016667
-2.068601 62.824928 9.046839 3.885375 -66.484010 1.950860 -0.000000 -0.000001 0.000000 -30.085942 48.040187 38.784987 62.950602 10.763787 -4.698306 -38.802158 5.798341 5.077772 0.000000 0.000000 -0.000001 -0.000001 0.000000 0.000001 -14.894880 0.458306 -27.545060 29.677117 3.645982 -0.212044 -19.079531 -2.000572 25.572087 0.000000 0.000001 0.000000 0.000001 0.000001 -0.000002 7.914372 -7.869394 6.701526 -0.190739 -11.250305 6.028638 -11.447049 -11.562246 5.338305 3.252607 40.080301 6.930924 20.046148 25.136467 -4.753816 -0.000000 0.000001 0.000001 -0.000000 0.000001 0.000001 -0.000000 0.000001 0.000001 -0.000000 0.000001 -0.000001 -0.000000 0.000003 -0.000003 -0.000000 0.000001 -0.000001 -0.000000 0.000003 -0.000003 -0.000000 0.000001 0.000001 -0.000000 0.000001 0.000001 7.036031 -21.717437 28.304179 -17.434024 -22.035034 -5.063768 -0.024463 -18.120278 -4.741187 -3.552991 -6.370911 13.626895 42.313066 -18.874729 16.581719 -1.124732 11.542637 -8.102160 0.000000 0.000003 -0.000001 -2.169665 -7.707817 -52.286430 -1.077021 -2.178659 -57.035809 -0.000000 0.000000 -0.000000 0.593505 2.455634 -56.484380 -1.132157 -2.997383 -65.080242 -0.000000 0.000001 -0.000001 1.303210 5.891390 -65.858234 -2.589224 -2.454420 -70.907971 -0.000000 0.000001 -0.000001 0.029066 4.541969 -74.162392 -2.684739 -2.230676 -68.744645 -0.000001 0.000000 0.000001 0.000000 0.000001 -0.000001 0.930707 -15.187708 4.991299 -54.595215 -4.695029 -21.803101 -1.943042 39.705467 7.057013 -51.183471 -15.861535 -14.387252 55.149526 18.649529 -29.698260 -0.442546 -14.180539 7.313143 -0.000001 -0.000000 0.000003 5.673374 7.585015 36.844165 1.050451 3.824494 68.900250 0.000002 -0.000001 0.000002 -0.125702 1.886078 45.000780 -1.169013 3.204701 68.417663 0.000001 0.000000 -0.000001 -5.312023 1.216660 58.508821 -0.745202 1.667566 48.011254 0.000001 -0.000001 -0.000000 -7.756797 -9.376481 47.264004 -0.526050 1.541599 45.600508 0.000000 0.000002 -0.000003 0.000004 -0.000000 -0.000001 0.000000 0.000000 -0.000000 0.000000 0.000000 -0.000001 0.000000 0.000000 -0.000000 0.000000 0.000000 -0.000000 0.000000 0.000000 -0.000000 0.000000 0.000000 -0.000000 0.000000 0.000000 -0.000000 0.000000 0.000000 -0.000000 0.000000 0.000000 -0.000000 0.000000 0.000000 -0.000000 -0.000000 -0.000001 0.000000 -0.000000 -0.000001 0.000000 -0.000000 -0.000001 0.000000 
-2.592789 63.095566 9.586211 0.137382 -63.642965 -1.290648 0.000000 0.000000 -0.000000 -27.109820 47.443515 37.424263 61.553221 9.750651 -4.277266 -38.378249 5.627910 5.265079 0.000000 -0.000001 0.000000 0.000000 0.000000 -0.000000 -11.438844 0.537439 -27.818020 31.217475 1.405408 0.754459 -21.353533 -3.147527 23.150574 0.000000 -0.000002 -0.000000 -0.000001 -0.000003 -0.000000 7.632104 -7.859015 6.622820 -0.769987 -11.249921 5.778990 -12.026594 -11.514015 5.093313 5.352066 37.304745 7.154964 18.938299 24.498254 -3.642631 -0.000000 0.000000 -0.000000 -0.000000 0.000000 -0.000000 -0.000000 0.000000 -0.000001 -0.000000 0.000000 -0.000000 -0.000000 0.000000 -0.000000 -0.000000 0.000000 -0.000000 -0.000000 0.000000 -0.000000 -0.000000 0.000000 -0.000000 -0.000000 0.000000 -0.000000 7.857577 -21.919610 30.974454 -21.326275 -25.568328 -2.826537 -0.025391 -17.497918 -4.137781 -2.765583 -6.958311 14.864484 42.927582 -18.897808 16.453193 -0.945121 11.655994 -8.273434 0.000000 0.000002 -0.000001 -2.215070 -7.742158 -53.603888 -1.119920 -2.204966 -58.146111 0.000000 -0.000000 -0.000000 0.537335 2.419246 -57.792744 -1.191431 -3.024557 -66.361134 0.000001 -0.000001 -0.000003 1.239027 5.863622 -67.162247 -2.655534 -2.476360 -72.221341 -0.000001 0.000002 -0.000002 -0.038020 4.523879 -75.467634 -2.752220 -2.255871 -70.057722 -0.000001 0.000001 0.000001 -0.000002 -0.000000 0.000002 0.146582 -15.459974 2.713259 -57.506136 -5.072662 -23.534923 -0.738055 40.895153 7.076523 -50.027324 -13.816090 -14.796345 55.149536 18.649528 -29.698267 -0.442541 -14.180537 7.313144 -0.000001 -0.000002 -0.000003 5.673374 7.585017 36.844165 1.050451 3.824492 68.900250 -0.000001 0.000001 -0.000001 -0.125702 1.886079 45.000780 -1.169012 3.204700 68.417663 0.000000 0.000000 -0.000002 -5.312023 1.216659 58.508821 -0.745202 1.667566 48.011261 -0.000001 0.000003 -0.000003 -7.756797 -9.376481 47.264007 -0.526050 1.541599 45.600508 -0.000000 0.000000 -0.000001 -0.000001 -0.000001 -0.000001 0.000000 0.000000 -0.000001 -0.000000 0.000001 -0.000001 0.000000 0.000000 -0.000001 0.000000 0.000000 -0.000001 0.000000 0.000000 -0.000001 -0.000000 0.000001 -0.000001 0.000000 0.000000 -0.000001 0.000000 0.000000 -0.000001 0.000000 0.000000 -0.000001 -0.000000 0.000001 -0.000001 0.000000 0.000000 -0.000000 0.000000 0.000000 -0.000000 0.000000 0.000000 -0.000000 
-3.084823 63.398529 10.221146 -2.814616 -60.568212 -3.428304 0.000000 0.000002 -0.000000 -23.712861 47.174969 35.880302 59.660172 8.379602 -4.168674 -37.675931 5.669003 4.947562 0.000001 -0.000000 -0.000001 -0.000001 0.000000 -0.000000 -7.685681 0.503834 -28.535026 32.248031 -1.408061 2.594163 -22.410032 -4.589265 20.456333 0.000000 -0.000001 0.000000 0.000003 0.000000 -0.000002 7.262299 -7.830959 6.430471 -1.527753 -11.209405 5.298613 -12.782778 -11.382096 4.629934 8.338204 34.560388 6.887035 17.862379 23.738211 -2.470278 0.000000 0.000002 -0.000000 0.000000 0.000002 -0.000000 0.000000 0.000002 -0.000001 0.000000 0.000002 -0.000001 0.000001 0.000002 -0.000000 0.000000 0.000002 -0.000001 0.000001 0.000002 -0.000000 0.000000 0.000002 -0.000000 0.000000 0.000002 -0.000000 8.584867 -21.755778 33.610152 -27.651760 -28.364621 -2.405152 -0.026668 -18.419767 -2.358931 -5.291967 -5.926808 14.285845 43.353994 -18.915809 16.360955 -0.820369 11.735189 -8.393325 0.000002 0.000002 0.000000 -2.247281 -7.764463 -54.521982 -1.150286 -2.222088 -58.919917 0.000002 0.000001 -0.000002 0.497588 2.394605 -58.704458 -1.233048 -3.040920 -67.253786 -0.000001 0.000002 0.000001 1.193963 5.845098 -68.070902 -2.702004 -2.490720 -73.136532 -0.000001 0.000001 0.000000 -0.085029 4.512105 -76.377211 -2.799542 -2.272575 -70.972721 -0.000000 0.000000 0.000001 -0.000002 0.000002 0.000003 -0.667860 -15.637513 0.241168 -60.363552 -5.259260 -25.202674 0.541697 42.083207 7.030222 -48.692839 -11.717016 -15.338730 55.149533 18.649528 -29.698260 -0.442539 -14.180539 7.313147 0.000002 -0.000003 0.000004 5.673375 7.585015 36.844168 1.050450 3.824492 68.900257 -0.000003 -0.000000 0.000002 -0.125702 1.886077 45.000780 -1.169011 3.204701 68.417663 0.000002 -0.000001 -0.000003 -5.312022 1.216656 58.508821 -0.745204 1.667570 48.011254 -0.000001 -0.000000 -0.000001 -7.756797 -9.376481 47.264004 -0.526052 1.541598 45.600505 -0.000000 0.000001 0.000001 0.000001 -0.000001 0.000000 -0.000000 0.000000 -0.000002 -0.000000 0.000000 -0.000001 -0.000000 0.000000 -0.000001 -0.000000 0.000000 -0.000001 -0.000000 0.000000 -0.000002 -0.000000 0.000000 -0.000000 -0.000000 0.000000 -0.000001 -0.000000 0.000000 -0.000001 -0.000000 0.000000 -0.000002 -0.000000 0.000000 -0.000000 0.000000 0.000002 -0.000000 0.000000 0.000002 -0.000000 0.000000 0.000002 -0.000000 
-3.513901 63.697655 11.070471 -4.366117 -57.565777 -4.222221 0.000000 0.000001 -0.000000 -20.195582 47.220014 34.125176 57.170439 6.885336 -4.296965 -36.866110 5.879142 3.874451 0.000000 -0.000002 -0.000003 0.000000 0.000001 -0.000001 -4.095273 0.201810 -29.652819 32.385567 -4.475880 5.422862 -21.508081 -5.772548 17.077025 0.000000 0.000000 0.000000 0.000000 -0.000002 0.000001 6.768245 -7.799332 6.174663 -2.535071 -11.162003 4.689575 -13.787177 -11.218773 4.041872 11.602466 31.881113 6.465373 17.424402 22.943900 -1.329562 0.000001 0.000001 -0.000001 0.000001 0.000001 -0.000001 0.000001 0.000001 -0.000002 0.000001 0.000001 -0.000003 0.000001 0.000001 -0.000003 0.000001 0.000001 -0.000003 0.000001 0.000001 -0.000003 0.000001 0.000001 -0.000001 0.000001 0.000001 -0.000001 8.478568 -20.502876 36.126260 -34.534755 -32.188428 -4.145008 -0.027680 -17.857388 -0.308351 -9.297700 -5.515041 15.170701 43.570583 -18.924859 16.312469 -0.757215 11.775684 -8.454593 -0.000000 -0.000003 -0.000001 -2.263416 -7.775070 -54.989552 -1.165432 -2.230500 -59.314087 -0.000001 0.000002 0.000004 0.478524 2.383223 -59.168925 -1.253584 -3.047952 -67.708444 0.000002 0.000001 -0.000001 1.171027 5.836681 -68.533708 -2.726082 -2.497382 -73.602829 -0.000000 0.000000 0.000000 -0.109017 4.506866 -76.840455 -2.824286 -2.279915 -71.438834 0.000000 -0.000001 -0.000001 0.000001 0.000002 0.000001 -1.505393 -15.764138 -2.396705 -63.043384 -5.187519 -26.544806 1.665744 43.271854 6.930267 -47.203171 -9.686945 -15.881247 55.149536 18.649528 -29.698257 -0.442541 -14.180536 7.313143 0.000001 0.000000 -0.000001 5.673374 7.585015 36.844165 1.050450 3.824489 68.900257 -0.000002 -0.000001 0.000002 -0.125701 1.886076 45.000780 -1.169012 3.204703 68.417670 0.000004 -0.000001 -0.000001 -5.312023 1.216659 58.508821 -0.745203 1.667568 48.011257 -0.000001 -0.000000 -0.000002 -7.756796 -9.376481 47.264007 -0.526050 1.541599 45.600501 -0.000000 -0.000000 0.000002 -0.000000 0.000001 -0.000001 0.000000 0.000000 -0.000002 -0.000001 0.000000 -0.000000 0.000000 0.000000 -0.000000 0.000000 0.000000 -0.000000 0.000000 0.000000 -0.000002 -0.000001 0.000000 0.000000 0.000000 0.000000 -0.000000 0.000000 0.000000 -0.000000 0.000000 0.000000 -0.000002 -0.000001 0.000000 0.000000 0.000000 0.000001 -0.000000 0.000000 0.000001 -0.000000 0.000000 0.000001 -0.000000 
